<?xml version="1.0" encoding="UTF-8"?>
<svg version="1.1" viewBox="175 146 686 686" width="1024" height="1024" xmlns="http://www.w3.org/2000/svg">
<path transform="translate(503,150)" d="m0 0h16l30 2 28 4 32 8 21 7 25 11 25 13 19 12 16 12 10 8 12 11 8 7 9 9 7 8 12 14 14 19 12 19 10 17 13 28 10 28 7 25 5 25 3 23 1 17v30l-2 26-5 30-6 24-9 27-13 29-10 18-12 19-12 16-13 16-12 13-16 16-11 9-12 10-17 12-18 11-14 8-26 12-28 10-21 6-23 5-23 3-14 1h-34l-23-2-24-4-21-5-23-7-25-10-23-11-25-15-18-13-14-11-14-12-21-21-9-11-10-12-12-17-9-14-10-18-11-23-10-27-7-24-5-26-3-23-1-16v-31l2-24 4-27 8-32 8-24 9-21 8-16 11-20 14-21 10-13 12-14 11-12 17-17 11-9 15-12 21-14 17-10 29-14 24-9 25-7 25-5 25-3z" fill="#243518"/>
<path transform="translate(508,177)" d="m0 0h13l27 2 26 4 24 6 24 8 24 11 19 10 20 13 16 12 11 9 13 12 11 11v2h2l9 11 11 14 10 15 9 15 11 21 11 26 9 28 5 20 4 26 2 27v9l-16-8-25-14-21-13-11-7-4-2 8-4 1-2v-7l-13-12-9-14-6-13-7-20-2-2h-7l-4 10-5 17-8 17-3 3-14-12-29-29-7-8-9-10-9-11-10-11-9-11-12-14-11-13-12-14-13-15-24-28-6-5-5-2h-8l-7 4-9 10-14 19-14 18-11 14-13 15-24 28-14 15-7 8-11 12-25 25-4 3-4-2-5-5-7-9-9-17-5-15-6-21-2-3h-6l-3 6-6 22-8 20-6 11-9 10-5 6-1 2v7l4 3 11 1-2 5-8 11-6 7-14 11-4 2-1 4v7l5 4 3 1 12 1-2 6-8 13-11 12h-4l-10-7-7-2h-14l-10 3v-34l4-31 5-23 8-26 10-25 10-21 10-17 10-15 12-16 12-14 14-15 8-7 12-11 17-13 15-10 21-12 21-10 24-9 22-6 20-4 23-3z" fill="#CADADA"/>
<path transform="translate(503,150)" d="m0 0h16l30 2 28 4 32 8 21 7 25 11 25 13 19 12 16 12 10 8 12 11 8 7 9 9 7 8 12 14 14 19 12 19 10 17 13 28 10 28 7 25 5 25 3 23 1 17v30l-2 26-5 30-6 24-9 27-13 29-10 18-12 19-12 16-13 16-12 13-16 16-11 9-12 10-17 12-18 11-14 8-26 12-28 10-21 6-23 5-23 3-14 1h-34l-23-2-24-4-21-5-23-7-25-10-23-11-25-15-18-13-14-11-14-12-21-21-9-11-10-12-12-17-9-14-10-18-11-23-10-27-7-24-5-26-3-23-1-16v-31l2-24 4-27 8-32 8-24 9-21 8-16 11-20 14-21 10-13 12-14 11-12 17-17 11-9 15-12 21-14 17-10 29-14 24-9 25-7 25-5 25-3zm5 27-22 1-29 4-26 6-24 8-25 11-19 10-19 12-13 10-11 9-12 11-13 12-9 10-11 13-13 18-13 21-12 23-11 27-7 22-6 25-4 27-1 9v51l3 24 5 23 7 24 8 20h3 1l-2 4 12 25 15 24 12 16 5 6 6-5 11-5h16l8 3 5 4h2l2 4 4 9v15l14-7h17l10 5 7 8 2 5 1 10 11-4h9l8 4 5 6 2 4v11l-4 10-1 3 4 2 6 1 3 4 5-1 2-1-17 9-3 1v2l25 8 27 6 24 3h44l26-3 29-6 23-7 20-8 1-5 1 3 5-1 16-8 17-9 1-2-6-1-4-4-3-10 19 2-2-5-7-8-9-8-18-11-12-7-19-8-3-3h12l8 1 4-8 7-6 6-3 4-1h13l12 5 4 2 2-15 6-12 8-7 10-5 4-1h13l11 4 7 5 1-3-2-4-1-6v-12l3-8 7-8 8-4 8-2h10l9 3 9 6 4 4 6-14 8-24 6-26 4-29 1-13v-27l-2-27-4-26-7-27-9-26-11-25-11-21-15-23-12-16-9-10-1-2h-2l-2-4-17-17-11-9-15-12-15-10-15-9-23-12-19-8-24-8-27-6-29-4-18-1z" fill="#261F15"/>
<path transform="translate(509,234)" d="m0 0h8l8 4 8 8 9 11 9 10 9 11 9 10 9 11 9 10 9 11 24 28 13 15 11 12 7 8 25 25 11 9-1 5-11 13-2 3v5l5 3 9 2-6 11-9 11-8 7-6 5-1 7 3 3 6 2h13l-2 6-11 13-9 8-4 3-4-1-5-4v-2l9-3 1-5-12-12-4-8v-2l5-1 1-1v-8l-4-2-7-8-7-18-2-7-5 1-3 8-5 15-7 13-5 6v4l10 2-4 7-8 7-3 5 1 5 10 3-3 5-4 5-9 7-2-1-4-3v-5h3l-4-7-4-4-6-17-2-3-5 1-7 21-2 3-7-1-2-1h-8l-2 2-1 5-5 1-1-5-4-9-3-3-3 3-3 8-1 2-4-3-8-3-6-8-6-7-3-3v-2h3l-2-5-4-5-4-10-2-6h-4l-4 12-6 11v4l4 3-3 4h-2l-1 2-7-7-5-4-6-8-1-4 7-2 2-4-3-5-7-7-5-8-6-18-3-8h-6l-8 23-6 11-4 5-5 5v5l10 2-2 5-11 11-6 5-1 5 2 4-6-1-10-7-10-10-7-10-3-5v-4l13-2 6-3 3-4v-5l-7-7-10-8-12-12-7-9v-3l11-2 4-2 1-6-4-6 13-12 24-24 7-8 11-12 7-8 9-10 9-11 9-10 9-11 13-16 9-12 16-21 7-9 8-7z" fill="#54757B"/>
<path transform="translate(545,529)" d="m0 0h9l-2 4-3 3-27 8-8 4-2 5 9 3 21 6 26 7 15 6 11 6 4 5 1 7-6 9-12 9-50 26-10 8-4 6v10l4 6 8 7 16 8 26 11 19 9 12 8 13 10 8 9 7 14 2 10-1 15-1 5-26 10-25 7-28 5-19 2h-44l-24-3-27-6-25-8v-2l19-9 16-11 12-11 7-10 2-5v-14l-5-10-8-7-17-12-7-8-3-6-1-7 2-9 8-11 13-10 29-15 34-14 25-10 9-6 2-4-5-5-14-7-28-11-11-6-5-6 1-5 5-5 11-5 30-8z" fill="#F0B155"/>
<path transform="translate(739,444)" d="m0 0 4 1 11 6 19 12 23 13 22 12 1 1v18l-3 30-4 22-6 23-9 25-3 6-5-5-10-6-7-2h-10l-13 4-8 7-4 7-1 4v12l2 8 1 5-7-4-8-4-4-1h-13l-10 4-9 6-6 8-3 7-2 15-13-6-3-1h-13l-8 3-8 6-4 6-1 3-15-1h-5l3 3 19 8 24 14 13 10 8 8 3 5-1 2-18-2 3 10 4 4 6 1-3 3-20 11-13 6h-3l-1-11-1-14-5-12-8-11-9-8-15-10-17-9-33-14-14-7-10-9-3-5v-10l6-8 11-8 27-14 21-11 13-10 4-7-1-7-5-5-16-8-18-6-31-8-13-5-2-1 1-5 7-4 10-3 20-4-4 6 1 4 2 1 25 3 22 5h7l-1 8 14 1 13 4 3 1 1 8 4 3 11 4-4 3-18 12-8 7-3 6v14l-8-1h-13l-10 5-4 6-2 12-6-2h-5l-5 4-1 2v7l2 5 6 2 8 4h4l9-6h8l5 2 2-6 5-9 6-7 10-6 3-1h9l8 3v-21l4-10 6-8 8-7 11-5h19l12 5 6 4v-11l4-10 4-5 8-5 6-2h11l11 3 5 2-1-3v-13l3-10 6-9 7-7 8-5-13-9-11-11-6-9v-2l11-2 4-4v-6l-5-5-10-9-8-9-7-12z" fill="#797523"/>
<path transform="translate(473,538)" d="m0 0v3l-3 2 10 2h3l4 1-1 9 3 4 7 3 18 8 25 10 9 6 2 4-5 6-16 8-26 10-28 12-25 13-13 10-7 10-2 11 3 9 6 8 24 18 5 6 3 7v14l-5 10-9 10-9 8-9 6-7 3-5 1-3-4-7-2-3-1 2-5 3-8v-11l-5-8-7-5-3-1h-9l-11 4-2-13-6-8-5-4-7-3h-17l-14 7v-15l-5-10-1-3-4-2-7-4-4-1h-16l-14 7-3 3-10-12-12-18-12-20-10-21 2-4 10-10 11-5 4-1h14l10 3 9 5 7 8 6 12 1 14 9-1 6-1h8l11 4 6 4 3 3v2h2l5 10 1 5v9l-2 8h12l13 4 6 3-1-4v-9l3-10 7-9 11-11 13-9h2v-2l35-13 26-9 5-1-3-5-5-2h-8l-5 2-3-9-6-4-9-1-6 4-3 4-2 4-9-10-11-5h-6l-6 4-4 6-3 7h-3l-7-7-3-5v-2l13-2 8-4 3-5v-6l-10-8-8-5 5-4 13-7 3-2h14l6 4 3 4v2l11-5h7l7 4 4 9 10-5-1-5-7-9v-2z" fill="#787422"/>
<path transform="translate(707,370)" d="m0 0h7l4 5 8 23 8 15 8 10 10 9v7l-4 4-2 1h-7l8 14 11 12 11 9 1 2v6l-5 5-4 1h-7l5 8 9 10 8 7 9 5-4 4-8 6-7 8-4 10-1 4v16l-5-1-11-3h-11l-10 4-5 5-4 6-2 6-1 11-5-2-10-5-3-1h-19l-14 7-7 7-6 11-1 4-1 21-8-2h-9l-10 5-6 5-6 10-4 8-5-1h-8l-9 6h-4l-14-7-3-5v-7l4-5 3-2 8 1 2 1 2-11 5-7 10-5h13l7 1v-13l4-7 9-8 17-11 2-2-9-3-5-4v-8l9-9 8-5 16-13 1-4h-8l-9-3-2-2v-6l2-3-1-2h5l13-11 10-12 2-5h-12l-9-4-1-6 3-5 13-11 8-10 6-10-11-3-3-3 1-7 8-9 6-9 8-15 6-18 3-10z" fill="#243518"/>
<path transform="translate(512,242)" d="m0 0 4 2 11 11 9 11 10 11 9 11 11 13 11 14 13 16 13 17 6 9v1l-7-1-13-5-16-8-19-11-13-8-3-1 4 12 16 34 9 20v2l-5-2-15-9-19-14-15-13-9-9h-3l-11 21-10 14-11 12-9 8-4 2h-3l1-6 10-26 8-26 3-14-20 12-17 8-10 3 2-4 11-13 11-14 14-18 14-19 26-36z" fill="#FDF9E7"/>
<path transform="translate(762,599)" d="m0 0h10l9 3 9 6 4 6-15 29-14 21-12 16-10 11-7 8-22 22-14 11-12 9-15 10-6 1-5-3-4-8v-5h12l6 1-4-7-8-8-14-10-21-12-19-8-3-2v-2l5-1 13 1 2 1 1-5 7-8 9-5 4-1h13l12 5 3 2 3-17 6-10 8-7 10-5 4-1h13l11 4 7 5-3-12v-12l3-8 8-9 8-4z" fill="#3F4A1D"/>
<path transform="translate(619,442)" d="m0 0h5l4 9 6 16 7 8 4 4v6l-5 3-2-1 6 11 9 8 2 5-3 5-8 1 5 6 1 3-2 2v6l5 3 13 2 1 3-10 9-12 9-6 4-6 6-6-1-11-3-14-2v-7l-11-1-17-4-25-3-4-3 1-4 3-4-16 4-3-1 19-6 5-6-21 3-30 8-12 6-3 1-1 7 4 6-4-2-2-3 1-7 1-2-6 1-3-2-9-1 4-4-2-4-8-6-5-5-6-7-2-4h2v-2l9-2 3-3 1-3h2l2-4-4-3 1-6 7-14 3-8 5 1 4 12 5 8 2 2v4h-3l1 4 4 2 7 8 3 4v2l10 3 2 1 4-10 3-2 5 5 4 11 4 1v-5l3-3h8l5 2h4l9-24 5-1 4 6 6 18 4 2 2 3v3h-3v5l5 2h2l9-7 5-7-9-3-2-2 1-6 4-5 6-5 4-6-9-3-1-4 8-11 6-13 5-16z" fill="#3F4A1D"/>
<path transform="translate(580,372)" d="m0 0 6 2 41 20 22 12 17 10 15 9v3l-8 10v5l5 3 9 2-6 11-9 11-8 7-6 5-1 7 3 3 6 2h13l-2 6-11 13-9 8-4 3-4-1-5-4v-2l9-3 1-5-12-12-4-8v-2l5-1 1-1v-8l-4-2-7-8-7-18-2-7-5 1-3 8-5 15-7 13-5 6v4l10 2-2 2h-5l-1 2h-2v2l-4-1v2l-4-2-5-12-15-16-10-10-7-8-8-10-13-18-12-24-1-5 12 5 22 11 22 12 29 15 6 4-6-15-9-20-8-16z" fill="#728C8B"/>
<path transform="translate(337,392)" d="m0 0 5 2 7 8 1 2 4 4h-3v2h-13l-2 4-3 2 1 4 5 3 2-1 4 6 5 4 7 8 8 8 10 8 5 5-1 7-6 5-6 2h-10l3 7 6 9 9 10 7 6 8 4 5 2 4 4-3 6-5 4-9 3h-12l-3-1-5-6-3-5-6-5-5-3 5 13v4l-2 1h-9l-8-3-8-7v-2h-4l-9 8-8 4h-13l-5-3 1-4 8-11 8-16 6-16 5-12 4-16v-4l-4 2-8 5-13 3h-4l3-9 4-8 1 3-1 2 7-2 3-3 2-10 5-12 1-10-4 1-9 3 3-10 10-4 7-3 7 5h6z" fill="#55591F"/>
<path transform="translate(545,529)" d="m0 0h9l-2 4-3 3-27 8-8 4-2 5 9 3 21 6 26 7 15 6 11 6 4 5 1 7-6 9-12 9-50 26-10 8-4 6v10l4 6 8 7 16 8 26 11 19 9 12 8 13 10 8 9 7 14 2 10-1 15-2 2v-21l-3-10-6-10-4-4v-2h-2v-2l-4-2-13-10-16-9-28-12-18-8-11-7-5-4-5-9v-8l3-7-3-2 1-4 3-3 4-1v2l4 1v-3l-5-1-3-6v-2l-10-2-3-3h-7l1 2-3 7-3 2-12 1-2 3h-11-2l-5 9-1 3 5 2 3 5 9 2 1 2-5 5-7 5-1 8 5 4-2 4-5-1-4-2-8 3-2 1-7-3h-5l2 4 17 12 10 9 4 8 1 3v11l-4 10-5 5 2-5 4-8v-14l-5-10-8-7-17-12-7-8-3-6-1-7 2-9 8-11 13-10 29-15 34-14 25-10 9-6 2-4-5-5-14-7-28-11-11-6-5-6 1-5 5-5 11-5 30-8z" fill="#F7BC5F"/>
<path transform="translate(424,430)" d="m0 0h6l3 5 5 17 5 10 9 10 3 5-3 5-7 1 5 8 5 6 8 7 2 4-4 3-9 1v4l6 8 5 4v2l4 2 6 5-2 4-4 1 9 12-1 5-10 5-5-10-6-3h-7l-8 4h-3l-5-7-4-2h-14l-14 8-5 3-4-2-14-11-7-7-2-4 1-4h14l9-3 5-4 2-5v-2l-4-2-4-5 2-6 15-14 4-6h-8l-3-2 1-7 6-5 6-10 6-15 4-12z" fill="#243517"/>
<path transform="translate(294,672)" d="m0 0h16l8 3 7 5 6 10 1 3v14l10-6 3-1h17l10 5 8 9 2 5 1 9 10-4h9l8 4 6 7 2 4v11l-4 10-2 3 10 2 1 3 5 1 5-3 2 1-10 6-13 6-5-1-26-11-19-10-17-11-19-14-15-13-10-9-12-12-9-11-2-3 1-4 8-5z" fill="#3F4A1D"/>
<path transform="translate(718,384)" d="m0 0h3l6 16 7 13 8 10 10 9v7l-4 4-2 1h-7l8 14 11 12 11 9 1 2v6l-5 5-4 1h-7l5 8 9 10 8 7 9 5-1 2-7 3-5 2-15-4-14-7 4 11 3 6v6l-3 3h-9l-10-1-3-3v-4l-9-9-2-3-5 5-7 4h-10l2-4 9-12 5-8 5-13 5-1 9 2 5 2h3l-5-5-6-9-4-10-1-7h-2l-1 3-11 8-3 1h-7l5-10 11-20 6-9 1-3-10 4h-3l-1-5 11-25 4-6 3-9-2-5z" fill="#3F4A1D"/>
<path transform="translate(347,509)" d="m0 0 9 5 6 6 6 10 1 5 7 8 16 13 4 4 11 7 4 4v6l-4 6-8 4h-12l-2-1v-4l-16-4-11-7-6-6 3 10 6 23-1 4h-7l-12-6-9-8-8-13-7 6-10 5-4 1h-10l-9-2v-2l8-7 9-10 10-16 10-21 3-12 2-1 6 7 6 3 4 1h11l-4-11z" fill="#404B1D"/>
<path transform="translate(508,249)" d="m0 0h1l-1 10-8 40-3 18 1 5 10 11 9 11 11 12 11 14 5 6-7-2-16-13-12-11-5-5h-3l-11 21-10 14-11 12-9 8-4 2h-3l1-6 10-26 8-26 3-14-20 12-17 8-10 3 2-4 11-13 11-14 14-18 14-19 13-18 9-13 3-1 1-2h2z" fill="#E5E1CE"/>
<path transform="translate(545,529)" d="m0 0h9l-2 4-3 3-27 8-8 4-2 5 9 3 21 6 26 7 15 6 11 6 4 5 1 7-6 9-12 9-27 14-15 7v-2l16-8 17-9-4-2v-2l-8-1-4-9-7-4-10 6-11 5-16 6h-2v2l-6 3-1-4 33-13 10-6 3-5-5-5-14-7-28-11-11-6-5-6 1-5 5-5 11-5 30-8z" fill="#F7BC5F"/>
<path transform="translate(312,333)" d="m0 0h6l4 6 8 29 9 19 8 11 3 3v2l4 2 6 7-1 6-5 3-4 1h-7l3 5-1 2-5-5-7-4-1-4 4-3 2-4 13 1v-2l2-1-5-3-2-4-5-6h-4l-2 6h-6l-7-5-13 5-3 1-3 9 8-3 4-1 1 1-1 10-5 12-2 10-5 5h-6v-7l3-10-7 2-4-2 1-6-12 1-5-4v-7l4-6 9-9 8-14 8-20 7-25z" fill="#3E481E"/>
<path transform="translate(216,421)" d="m0 0 1 2-3 12 5-1 10-4 12-4v2l-5 1-2 10 1 2h12l-4 2v2h10l1-2v2h8l6 1 4-2-4 5-10 8-3 1-1 4v7l5 4 3 1 12 1-2 6-8 13-11 12h-4l-10-7-7-2h-14l-10 3v-34l4-31 3-13z" fill="#DAE3DE"/>
<path transform="translate(739,444)" d="m0 0 4 1 11 6 19 12 23 13 22 12 1 1v18l-2 20-11-3-4-1h-20l-12-9-10-10-6-9v-2l11-2 4-4v-6l-5-5-10-9-8-9-7-12z" fill="#597A7F"/>
<path transform="translate(476,469)" d="m0 0 5 1 4 12 5 8 2 2v4h-3l1 4 4 2 7 8 3 4v2l10 3 2 1 4-10 3-2 5 5 4 11 12 3v1l-8 1v-2l-5 2-2 4-26 7-12 6-3 1-1 7 4 6-4-2-2-3 1-7 1-2-6 1-3-2-9-1 4-4-2-4-8-6-5-5-6-7-2-4h2v-2l9-2 3-3 1-3h2l2-4-4-3 1-6 7-14z" fill="#3E4A1D"/>
<path transform="translate(412,584)" d="m0 0 9 1 9 5 8 9 3-6 6-5 2-1 9 1 6 4 2 2 2 7 4-2h8l6 3 2 2v3l-25 9-20 7-19 7-2-9-9-6-13-8-2-2 1-4 4-10 7-6z" fill="#404A1D"/>
<path transform="translate(218,496)" d="m0 0h14l9 3 9 7-1 4-11 10-1 2 1 9 5 4 3 1h13l3-1v2l-5 5-12 13-4 4-20-2-5-1 1 7-2-3-4-19-3-24v-16l1-2z" fill="#7B7524"/>
<path transform="translate(249,596)" d="m0 0h6l1 6 1 3 5 5 2 7v12l5 5 6 2 2-1 10 3 6 5v2h2l6 8v3l-7 2h-7l-6-2-3 10h-2l-2 4-2 2-3 1-9-12-13-21-12-23-2-7 12-12z" fill="#726E21"/>
<path transform="translate(777,334)" d="m0 0 3 3 13 27 9 24 8 26 5 24 3 24 1 27-16-8-25-14-21-13-11-7-4-2 8-4 1-2v-7l-13-12-9-14-6-13-7-20-2-2h-7l-4 10-5 17-8 17-3 3-14-12-26-26 1-2 29 29 8 7h3l8-17 6-21 3-6 4-2 6 1 4 5 8 23 8 15 8 10 10 9 1 7-3 5 1 1v3l13-2 6 5-1 3 9 1 1-3h7l-3 1 1 1h7l5-1-8-4 1-2 7 2-1-5 6 4-3-8-2-5 6 3v2l4-1v2l2 1 2 4 2 1 2 13 1 25v-16l-4-33-5-23-9-29-10-24-11-23z" fill="#E0E7E3"/>
<path transform="translate(465,633)" d="m0 0 1 3-5 9-1 3 5 2 3 5 9 2 1 2-5 5-7 5-1 8 5 4-2 4-5-1-4-2-8 3-2 1-7-3h-5l2 4 17 12 10 9 4 8 1 3v11l-4 10-5 5 2-5 4-8v-14l-5-10-8-7-17-12-7-8-3-6-1-7 2-9 8-11 13-10 7-3v2z" fill="#F7BC5F"/>
<path transform="translate(594,625)" d="m0 0h13v2l7 2-1 6-4 5-6 11-2 2-5 2-5 5v4l-8 4-3 3-5-2-12-4-3-5v-7l4-5 3-2 8 1 2 1 2-11 5-7z" fill="#3E491D"/>
<path transform="translate(409,636)" d="m0 0 2 1-2 4-8 7-7 7-5 8-2 8v9l1 5-15-6-17-2 1-8v-11l13-2 4-2 3-7v-9l1-1z" fill="#3F4A1D"/>
<path transform="translate(721,661)" d="m0 0h19l8 2 7 3-1 2-11-4-7-1 1 2-11 5-10 2-3 2-1 7-5 10-4 1 1 7-2 4-9 3h-4l-9-1-7 5-9 1-9-1 2-10 5-5 7-3 6-1h9l7 1 3 1 3-10 7-11 7-6z" fill="#55591E"/>
<path transform="translate(549,594)" d="m0 0 1 2 6 2 4 8v2h6l5 4 3 1-23 12-12 6-2-1 1-2-1-3-6-1v-3l-4-2-4-5-1 4-5 1-7-7 25-10 13-7z" fill="#F0B155"/>
<path transform="translate(621,726)" d="m0 0 5 5 6 13 1 5 2-2v2l8-7 1-4-1-4 3-3h10l8-3 6-1 6 7 1 4-19-2 3 10 4 4 6 1-3 3-20 11-13 6h-3l-1-11-1-14-5-12-4-6z" fill="#6D6B20"/>
<path transform="translate(522,508)" d="m0 0 4 2 4 8 2 7h6l6 2v1l-8 1v-2l-5 2-2 4-26 7-12 6-3 1-1 7 4 6-4-2-2-3 1-7 1-2-6 1-3-2-9-1 4-4-2-4-2-3 4 1v2h12l1-3 7-1v-2l14 1v-2l-2-1-3-2-3-3 2-2-5-2 1-2h12l6 3 1-1 5-10z" fill="#54591E"/>
<path transform="translate(452,733)" d="m0 0 6 2 5 4v4l-7 8-10 9-9 6-7 3-5 1-3-4-7-2-2-2 4-6h5l5-5 4-2 2-9 5-4 9-1z" fill="#6D6B1F"/>
<path transform="translate(380,461)" d="m0 0h1v6l-5 6-7 3-10 1 3 6 4-3 5 1 6 1 2-2 5 4 2 4 5-1 1-2h4v-2h2l1-5 4 3 8 1-2 5-11 11-6 5-1 5 2 4-6-1-10-7-10-10-7-10-3-5v-4l13-2 6-3 3-4z" fill="#758F8F"/>
<path transform="translate(651,478)" d="m0 0h7l1 3-2 4 1 6 8 3h13l-2 6-11 13-9 8-4 3-4-1-5-4v-2l9-3 1-5-10-10-4-10 5-3 3-7z" fill="#618086"/>
<path transform="translate(617,488)" d="m0 0 1 2 3 1 1 6-5 9-2 2-3 7-1 2h-4l-2 5-5 4 2-4 2-3-9-3-2-2 1-6 4-5 6-5 4-6 4-1 1-2z" fill="#253517"/>
<path transform="translate(500,659)" d="m0 0 5 1 6-1 2 5v5l5 1v5l-6 2-1 2-4 2h-7l-9-3-5-3v-5l4-1v-2l5-3z" fill="#F8BD60"/>
<path transform="translate(657,735)" d="m0 0h5l-4 1 3 10 4 4 6 1-3 3-17 9-7 1-3-2v-2l-2-1 2-5 4-4 1-9 7-4h4z" fill="#575B1F"/>
<path transform="translate(320,442)" d="m0 0h2l1 5 4 4 6 11 4 4-1 5-2 1v-2l-2 1v2l-7 2-5 1-7 1 3-17 3-10v-6z" fill="#3F4A1D"/>
<path transform="translate(521,635)" d="m0 0 3 3 2 1v2l-6 5-3 5v10l4 6 8 7 16 8 26 11 19 9 12 8 13 10 8 9 7 14 2 10-1 15-2 2v-21l-3-10-6-10-4-4v-2h-2v-2l-4-2-13-10-16-9-28-12-18-8-11-7-5-4-5-9v-8l3-7-3-2 1-4 3-3z" fill="#F5B95C"/>
<path transform="translate(335,382)" d="m0 0 3 3 7 11 5 5v2l4 2 6 7-1 6-5 3-4 1h-7l3 5-1 2-5-5-7-4-1-4 4-3 2-4 13 1v-2l2-1-5-3-2-4-8-10-3-6z" fill="#3C451E"/>
<path transform="translate(777,334)" d="m0 0 3 3 13 27 9 24 8 26 5 24 3 24 1 27-16-8-25-14-21-13-11-7 2-1 40 24 24 13 4 2v-17l-4-33-5-23-9-29-10-24-11-23z" fill="#F4F7F6"/>
<path transform="translate(411,763)" d="m0 0 5 1 7 2v2l5 1 5-3 2 1-10 6-13 6-5-1-15-6-1-2 9-1 9-4z" fill="#565A1E"/>
<path transform="translate(216,556)" d="m0 0 13 1 10 1v3l-11 9-4 4-2 7-2-3-4-15z" fill="#444E1E"/>
<path transform="translate(523,693)" d="m0 0 4 2 2 5-1 2 5 2-1 4-8 3-4 1-5-4-3-5-2-1v-2l-2-1 7-2 6-1v-2z" fill="#F8BD60"/>
<path transform="translate(466,364)" d="m0 0h2l-3 10-3 9 4 3 5 1 4-3-2 4-10 10-7 4h-3l1-6 10-26z" fill="#E1E8E1"/>
<path transform="translate(405,583)" d="m0 0m-1 1 3 1h3l-5 5-4 8-3 5-7-6-5-7v-2l13-2z" fill="#787422"/>
<path transform="translate(522,508)" d="m0 0 4 2 4 8 2 6-1 3-9-1-5-3-1-4 5-10z" fill="#3A461C"/>
<path transform="translate(746,446)" d="m0 0 6 2 19 12 19 11 22 12 4 2v-17l-1-14h2l2 26v9l-16-8-25-14-21-13-11-7z" fill="#F5F8F7"/>
<path transform="translate(306,577)" d="m0 0 4 1 2 1v2l5-3 2 1-5 4-11 4h-10l-5-2 3-4 5-1 5-2z" fill="#54591E"/>
<path transform="translate(213,436)" d="m0 0 1 2-3 23-1 12-1 25 7-3 12-1 12 3 9 6 5-1 5-4-2 4-5 5-4-2-9-6-7-2h-14l-10 3v-34l3-25z" fill="#F8F9F9"/>
<path transform="translate(497,517)" d="m0 0h12l6 3 4 4 7 2v1l-14-1v2l-7-1-6-3 2-3-5-2z" fill="#777421"/>
<path transform="translate(427,497)" d="m0 0 4 2 2 6v7l-8 4h-7z" fill="#404B1E"/>
<path transform="translate(377,459)" d="m0 0 3 2-1 7-6 5-6 2h-11l2-5 3-2 4-1 9-2 3-1z" fill="#3E481D"/>
<path transform="translate(433,679)" d="m0 0 1 2h2l2 5 15 11 9 7 5 6 4 9v11l-4 10-5 5 2-5 4-8v-14l-5-10-8-7-17-12-6-7z" fill="#F5B95C"/>
<path transform="translate(472,329)" d="m0 0h4v8l-6 23h-2l4-16 3-14-20 12-17 8-10 3 2-4 3-2 1 2 18-8 14-8z" fill="#F7F8F7"/>
<path transform="translate(606,475)" d="m0 0 2 1v2 2h2l2 4-1 4-3 3-7-1-2-1-1-4z" fill="#263417"/>
<path transform="translate(246,608)" d="m0 0 5 1 3 5v5l-2 2-5-1-6-3-1-2h2v-3h2v-2h2z" fill="#565A1F"/>
<path transform="translate(512,642)" d="m0 0 2 2-1 1-1 8-11-2-2-4 3-4z" fill="#F8BD60"/>
<path transform="translate(512,242)" d="m0 0 4 2 11 11 9 11 3 3-1 2-13-14-7-8-2-2-4-1-2 8-2-3h-2l-1 3-2-1z" fill="#F9F8F5"/>
<path transform="translate(411,586)" d="m0 0h6v3h-2v4h-2l-1 2-4 2-5-1 2-7 3-2z" fill="#55591E"/>
<path transform="translate(725,435)" d="m0 0 5 1 8 5v1h7l4-1-3 3h-7l5 9-1 2-5-7-1-3-8-3-5-6z" fill="#263219"/>
<path transform="translate(254,457)" d="m0 0 2 1-2 4v7l5 4 3 1 12 1-2 6-8 13-4 3 2-4 8-13 1-2-11-2-6-4-3-5 1-6z" fill="#F7F9F9"/>
<path transform="translate(277,403)" d="m0 0 2 1-4 5-1 2v7l4 3 11 1-2 5-8 11-3 2 2-4 6-9 1-2-8-2-5-4-1-6 3-7z" fill="#F6F8F8"/>
<path transform="translate(470,544)" d="m0 0h8l4 2 3-1 2 1v2l-4 3-4 1-3 1z" fill="#6E6B1F"/>
<path transform="translate(316,251)" d="m0 0 2 1-32 32v-3l7-7 7-8 13-12z" fill="#E9F0EF"/>
<path transform="translate(590,523)" d="m0 0 10 1-2 4-5 4-5-2-3-3z" fill="#748E8E"/>
<path transform="translate(815,454)" d="m0 0h2l2 26v9l-15-8 2-1 10 5v-17z" fill="#F7F9F9"/>
<path transform="translate(466,364)" d="m0 0h2l-3 10-10 26 5-3 2 1-6 4h-3l1-6 10-26z" fill="#F6F8F7"/>
<path transform="translate(747,520)" d="m0 0h11l4 2 1 3 5 2v1l-8-1-12-5z" fill="#54591E"/>
<path transform="translate(285,669)" d="m0 0 7 1v2l-2 2-3 2-3 1h-4l-1-5 2-2z" fill="#6E6C20"/>
<path transform="translate(450,638)" d="m0 0 3 1-4 4-10 8-6 5v-3l6-7z" fill="#F4B75B"/>
<path transform="translate(557,373)" d="m0 0h2l8 17v2l-5-2-13-8-1-2 5 2 8 4v-4z" fill="#F9F9F7"/>
<path transform="translate(479,623)" d="m0 0 2 1v2l-6 3-6 2-8 5-4 1v-3z" fill="#F3B65A"/>
<path transform="translate(355,580)" d="m0 0 2 2 4 16-1 4h-7l-12-6-2-3 5 2 8 4 6 1-1-9z" fill="#50561E"/>
<path transform="translate(531,602)" d="m0 0h2v2l-21 8h-2v2l-6 3-1-4z" fill="#F6BA5D"/>
<path transform="translate(378,492)" d="m0 0h2l1 8v4l-4-2-5-6h3v-2h3z" fill="#55777E"/>
<path transform="translate(533,531)" d="m0 0 3 1v2l-17 4-3-1 1-2z" fill="#F3B65A"/>
<path transform="translate(381,381)" d="m0 0v3l-23 23-2-2 12-11z" fill="#364D3C"/>
<path transform="translate(218,558)" d="m0 0 7 1-2 1-1 4-2 1v9l-2-2-2-9z" fill="#585B1F"/>
<path transform="translate(456,339)" d="m0 0 2 1-15 8-15 5 2-4 3-2 1 2 18-8z" fill="#FAFBFA"/>
<path transform="translate(521,635)" d="m0 0 3 3v2l-5 3-2 2-3-2 1-4 3-3z" fill="#F7BC5F"/>
<path transform="translate(584,519)" d="m0 0 4 4-1 3-3-4zm-1 7 3 1 4 3 2 1-3 4-2-1-4-3z" fill="#617E7F"/>
<path transform="translate(380,461)" d="m0 0h1v6l-5 6-7 3-10 1v2h-2v-4l13-2 6-3 3-4z" fill="#728D8D"/>
<path transform="translate(718,384)" d="m0 0h3l6 16 1 3-3-1-1-4h-2l-2-5z" fill="#363B28"/>
<path transform="translate(707,370)" d="m0 0h7l3 4h-9l-2 6-3-1 2-6z" fill="#343820"/>
<path transform="translate(409,486)" d="m0 0v3l-18 18 1-5 15-14z" fill="#252415"/>
<path transform="translate(429,458)" d="m0 0h2l1 7-3 4-3-2 1-6z" fill="#404B1E"/>
<path transform="translate(532,527)" d="m0 0h4v2l7-1 2 2-12 2h-5l2-1z" fill="#424C1C"/>
<path transform="translate(216,421)" d="m0 0 1 2-3 12h3l-1 4-3-1-1-3 3-13z" fill="#E5ECEB"/>
<path transform="translate(604,352)" d="m0 0 3 1 2 5-7-1-5-2v-2l6 1 2 1z" fill="#F6F8F8"/>
<path transform="translate(532,525)" d="m0 0h6l6 2v1l-8 1v-2l-8 2-2-2z" fill="#767421"/>
<path transform="translate(646,480)" d="m0 0 1 4-3 4-3-1 3-2zm-8 7 3 1 2 6 1 4-3-3-3-6z" fill="#779090"/>
<path transform="translate(514,554)" d="m0 0 10 3v3l-6-1-5-3z" fill="#F3B65A"/>
<path transform="translate(545,529)" d="m0 0h9l-2 4-4 3-1-3-3-2z" fill="#F2B458"/>
<path transform="translate(498,615)" d="m0 0 4 2-9 4h-2v-3z" fill="#F3B659"/>
<path transform="translate(510,610)" d="m0 0h2v2h-2v2l-6 3-1-4z" fill="#F3B65A"/>
<path transform="translate(392,587)" d="m0 0h5v3l-8 2-2-4z" fill="#6D6C20"/>
<path transform="translate(494,559)" d="m0 0 6 2 4 3-2 2-7-4z" fill="#F3B659"/>
<path transform="translate(258,498)" d="m0 0v3l-6 6-4-2-2-3 7 1z" fill="#FCFDFC"/>
<path transform="translate(740,444)" d="m0 0 6 2 7 5-4 1-3-3-5-2z" fill="#557475"/>
</svg>
